<svg xmlns="http://www.w3.org/2000/svg" viewBox="0 0 1024 1024" width="1024" height="1024">
  <defs>
    <linearGradient id="bgGrad" x1="0%" y1="0%" x2="100%" y2="100%">
      <stop offset="0%" stop-color="#155D46"/>
      <stop offset="100%" stop-color="#0A2E23"/>
    </linearGradient>
    <radialGradient id="vignette" cx="50%" cy="50%" r="75%">
      <stop offset="60%" stop-color="#000" stop-opacity="0"/>
      <stop offset="100%" stop-color="#000" stop-opacity="0.4"/>
    </radialGradient>
    <clipPath id="squircleMask">
      <rect x="0" y="0" width="1024" height="1024" rx="230" />
    </clipPath>
    <mask id="moonMask">
      <rect x="0" y="0" width="1024" height="1024" fill="white"/>
      <circle cx="674" cy="274" r="22" fill="black"/>
    </mask>
  </defs>

  <g clip-path="url(#squircleMask)">
    <!-- Background -->
    <rect width="1024" height="1024" fill="url(#bgGrad)"/>
    <rect width="1024" height="1024" fill="url(#vignette)"/>

    <!-- Outer Rings -->
    <circle cx="512" cy="512" r="420" fill="none" stroke="#F2C94C" stroke-width="6" opacity="0.2"/>
    <circle cx="512" cy="512" r="390" fill="none" stroke="#F2C94C" stroke-width="8"/>
    <circle cx="512" cy="512" r="365" fill="none" stroke="#F2C94C" stroke-width="2" stroke-dasharray="8 12" opacity="0.6"/>

    <!-- Mosque Elements (Gold) -->
    <g fill="#F2C94C">
      
      <!-- Base Line -->
      <rect x="220" y="612" width="584" height="16" rx="8"/>

      <!-- Main Dome -->
      <path d="M 290 620 C 290 410, 734 410, 734 620 Z"/>

      <!-- Dome Spire -->
      <rect x="506" y="320" width="12" height="80" rx="6"/>
      <circle cx="512" cy="315" r="7"/>

      <!-- Left Minaret -->
      <rect x="248" y="380" width="24" height="240" rx="12"/>
      <path d="M 240 380 L 280 380 L 260 345 Z"/>
      <rect x="258" y="315" width="4" height="25" rx="2"/>
      <circle cx="260" cy="310" r="5"/>

      <!-- Right Minaret -->
      <rect x="752" y="380" width="24" height="240" rx="12"/>
      <path d="M 744 380 L 784 380 L 764 345 Z"/>
      <rect x="762" y="315" width="4" height="25" rx="2"/>
      <circle cx="764" cy="310" r="5"/>

      <!-- Crescent Moon -->
      <circle cx="660" cy="280" r="24" mask="url(#moonMask)"/>

    </g>

      <!-- Mihrab (Inner Dashed Arch) -->
      <path d="M 450 620 C 450 520, 574 520, 574 620" fill="none" stroke="#F2C94C" stroke-width="5" stroke-dasharray="10,8" stroke-linecap="round" opacity="0.85"/>

      <!-- Praying Figures (Simple Line Art) -->
    <g fill="#F2C94C" stroke="#F2C94C" stroke-linecap="round" stroke-linejoin="round">
        <!-- Floor Line -->
        <rect x="280" y="780" width="464" height="4" rx="2"/>

        <!-- Male Figure (Left) -->
        <g transform="translate(0, -10)">
            <!-- Head -->
            <circle cx="350" cy="750" r="10" stroke-width="6"/>
            <!-- Back -->
            <path d="M 360 740 Q 410 670 450 740" stroke-width="6" fill="none"/>
            <!-- Legs -->
            <path d="M 450 740 Q 420 780 400 770" stroke-width="6" fill="none"/>
            <!-- Arm -->
            <path d="M 365 730 Q 340 760 330 780" stroke-width="5" fill="none"/>
        </g>

        <!-- Female Figure (Right) -->
        <g transform="translate(0, -10)">
            <!-- Head -->
            <circle cx="640" cy="750" r="10" stroke-width="6"/>
            <!-- Hijab drape -->
            <path d="M 630 740 Q 600 760 590 790" stroke-width="4" fill="none" opacity="0.8"/>
            <!-- Back -->
            <path d="M 650 740 Q 700 670 740 740" stroke-width="6" fill="none"/>
            <!-- Legs -->
            <path d="M 740 740 Q 710 780 690 770" stroke-width="6" fill="none"/>
            <!-- Arm -->
            <path d="M 655 730 Q 630 760 620 780" stroke-width="5" fill="none"/>
        </g>
    </g>
  </g>
</svg>